<?xml version="1.0" encoding="UTF-8" standalone="no"?>
<!-- Created with Inkscape (http://www.inkscape.org/) -->

<svg
   width="146.65067mm"
   height="146.65068mm"
   viewBox="0 0 146.65067 146.65067"
   version="1.1"
   id="svg5"
   inkscape:version="1.3 (0e150ed6c4, 2023-07-21)"
   sodipodi:docname="ikk_classificator_sheep_cat_unknown.svg"
   xml:space="preserve"
   xmlns:inkscape="http://www.inkscape.org/namespaces/inkscape"
   xmlns:sodipodi="http://sodipodi.sourceforge.net/DTD/sodipodi-0.dtd"
   xmlns="http://www.w3.org/2000/svg"
   xmlns:svg="http://www.w3.org/2000/svg"><sodipodi:namedview
     id="namedview7"
     pagecolor="#313744"
     bordercolor="#5e81ac"
     borderopacity="1"
     inkscape:pageshadow="0"
     inkscape:pageopacity="0"
     inkscape:pagecheckerboard="0"
     inkscape:document-units="mm"
     showgrid="false"
     inkscape:zoom="0.99766222"
     inkscape:cx="187.93936"
     inkscape:cy="279.65377"
     inkscape:window-width="1920"
     inkscape:window-height="1005"
     inkscape:window-x="0"
     inkscape:window-y="0"
     inkscape:window-maximized="1"
     inkscape:current-layer="layer1"
     inkscape:showpageshadow="0"
     inkscape:deskcolor="#4c566a"
     showborder="true" /><defs
     id="defs2"><marker
       style="overflow:visible"
       id="Triangle"
       refX="0"
       refY="0"
       orient="auto-start-reverse"
       inkscape:stockid="Triangle arrow"
       markerWidth="1"
       markerHeight="1"
       viewBox="0 0 1 1"
       inkscape:isstock="true"
       inkscape:collect="always"
       preserveAspectRatio="xMidYMid"><path
         transform="scale(0.5)"
         style="fill:context-stroke;fill-rule:evenodd;stroke:context-stroke;stroke-width:1pt"
         d="M 5.77,0 -2.88,5 V -5 Z"
         id="path135" /></marker><clipPath
       clipPathUnits="userSpaceOnUse"
       id="clipPath24"><g
         id="g25"
         style="stroke-width:1"><rect
           x="54"
           y="51.84"
           width="334.79999"
           height="332.64001"
           id="rect24"
           style="stroke-width:1" /></g></clipPath><clipPath
       clipPathUnits="userSpaceOnUse"
       id="clipPath25"><g
         id="g26"
         style="stroke-width:1"><rect
           x="54"
           y="51.84"
           width="334.79999"
           height="332.64001"
           id="rect25"
           style="stroke-width:1" /></g></clipPath><clipPath
       clipPathUnits="userSpaceOnUse"
       id="clipPath26"><g
         id="g27"
         style="stroke-width:1"><rect
           x="54"
           y="51.84"
           width="334.79999"
           height="332.64001"
           id="rect26"
           style="stroke-width:1" /></g></clipPath><clipPath
       clipPathUnits="userSpaceOnUse"
       id="clipPath27"><g
         id="g28"
         style="stroke-width:1"><rect
           x="54"
           y="51.84"
           width="334.79999"
           height="332.64001"
           id="rect27"
           style="stroke-width:1" /></g></clipPath><clipPath
       clipPathUnits="userSpaceOnUse"
       id="clipPath28"><g
         id="g29"
         style="stroke-width:1"><rect
           x="54"
           y="51.84"
           width="334.79999"
           height="332.64001"
           id="rect28"
           style="stroke-width:1" /></g></clipPath><clipPath
       clipPathUnits="userSpaceOnUse"
       id="clipPath29"><g
         id="g30"
         style="stroke-width:1"><rect
           x="54"
           y="51.84"
           width="334.79999"
           height="332.64001"
           id="rect29"
           style="stroke-width:1" /></g></clipPath><clipPath
       clipPathUnits="userSpaceOnUse"
       id="clipPath30"><g
         id="g31"
         style="stroke-width:1"><rect
           x="54"
           y="51.84"
           width="334.79999"
           height="332.64001"
           id="rect30"
           style="stroke-width:1" /></g></clipPath><clipPath
       clipPathUnits="userSpaceOnUse"
       id="clipPath16"><g
         id="g17"
         style="stroke-width:1"><rect
           x="54"
           y="51.84"
           width="334.79999"
           height="332.64001"
           id="rect17"
           style="stroke-width:1" /></g></clipPath><clipPath
       clipPathUnits="userSpaceOnUse"
       id="clipPath17"><g
         id="g18"
         style="stroke-width:1"><rect
           x="54"
           y="51.84"
           width="334.79999"
           height="332.64001"
           id="rect18"
           style="stroke-width:1" /></g></clipPath><clipPath
       clipPathUnits="userSpaceOnUse"
       id="clipPath18"><g
         id="g19"
         style="stroke-width:1"><rect
           x="54"
           y="51.84"
           width="334.79999"
           height="332.64001"
           id="rect19"
           style="stroke-width:1" /></g></clipPath><clipPath
       clipPathUnits="userSpaceOnUse"
       id="clipPath19"><g
         id="g20"
         style="stroke-width:1"><rect
           x="54"
           y="51.84"
           width="334.79999"
           height="332.64001"
           id="rect20"
           style="stroke-width:1" /></g></clipPath><clipPath
       clipPathUnits="userSpaceOnUse"
       id="clipPath20"><g
         id="g21"
         style="stroke-width:1"><rect
           x="54"
           y="51.84"
           width="334.79999"
           height="332.64001"
           id="rect21"
           style="stroke-width:1" /></g></clipPath><clipPath
       clipPathUnits="userSpaceOnUse"
       id="clipPath21"><g
         id="g22"
         style="stroke-width:1"><rect
           x="54"
           y="51.84"
           width="334.79999"
           height="332.64001"
           id="rect22"
           style="stroke-width:1" /></g></clipPath><clipPath
       clipPathUnits="userSpaceOnUse"
       id="clipPath22"><g
         id="g23"
         style="stroke-width:1"><rect
           x="54"
           y="51.84"
           width="334.79999"
           height="332.64001"
           id="rect23"
           style="stroke-width:1" /></g></clipPath></defs><g
     inkscape:groupmode="layer"
     id="layer3"
     inkscape:label="Capa 2"
     style="display:inline"
     sodipodi:insensitive="true"
     transform="translate(-45.463516,75.743751)" /><g
     inkscape:label="Capa 1"
     inkscape:groupmode="layer"
     id="layer1"
     transform="translate(-45.463516,75.743751)"><text
       xml:space="preserve"
       style="font-size:3.88056px;line-height:1.25;font-family:'Droid Sans';-inkscape-font-specification:'Droid Sans';stroke-width:0.264583"
       x="67.932114"
       y="-44.777832"
       id="text8"><tspan
         sodipodi:role="line"
         id="tspan8"
         style="stroke-width:0.264583"
         x="67.932114"
         y="-44.777832" /></text><path
       id="use2"
       d="m 72.718297,16.993815 c 0.280673,0 0.549889,-0.111513 0.748354,-0.309979 0.198466,-0.198465 0.309979,-0.467681 0.309979,-0.748354 0,-0.280674 -0.111513,-0.549889 -0.309979,-0.748355 -0.198465,-0.198465 -0.467681,-0.309978 -0.748354,-0.309978 -0.280673,0 -0.549889,0.111513 -0.748355,0.309978 -0.198466,0.198466 -0.309979,0.467681 -0.309979,0.748355 0,0.280673 0.111513,0.549889 0.309979,0.748354 0.198466,0.198466 0.467682,0.309979 0.748355,0.309979 z"
       style="fill:#bf616a;fill-opacity:1;stroke:none;stroke-width:0.353;stroke-linecap:butt;stroke-linejoin:round;stroke-dasharray:none" /><path
       id="use3"
       d="m 65.639662,47.094515 c 0.280673,0 0.549889,-0.111513 0.748354,-0.309979 0.198467,-0.198466 0.309979,-0.467681 0.309979,-0.748354 0,-0.280674 -0.111512,-0.549889 -0.309979,-0.748355 -0.198465,-0.198466 -0.467681,-0.309979 -0.748354,-0.309979 -0.280673,0 -0.549889,0.111513 -0.748355,0.309979 -0.198466,0.198466 -0.309978,0.467681 -0.309978,0.748355 0,0.280673 0.111512,0.549888 0.309978,0.748354 0.198466,0.198466 0.467682,0.309979 0.748355,0.309979 z"
       style="fill:#bf616a;fill-opacity:1;stroke:none;stroke-width:0.353;stroke-linecap:butt;stroke-linejoin:round;stroke-dasharray:none" /><path
       id="use4"
       d="m 76.666474,41.619125 c 0.280673,0 0.549889,-0.111509 0.748354,-0.309979 0.198466,-0.198465 0.309979,-0.467681 0.309979,-0.748354 0,-0.28067 -0.111513,-0.549889 -0.309979,-0.748355 -0.198465,-0.198465 -0.467681,-0.309978 -0.748354,-0.309978 -0.280674,0 -0.54989,0.111513 -0.748355,0.309978 -0.198467,0.198466 -0.309979,0.467685 -0.309979,0.748355 0,0.280673 0.111512,0.549889 0.309979,0.748354 0.198465,0.19847 0.467681,0.309979 0.748355,0.309979 z"
       style="fill:#bf616a;fill-opacity:1;stroke:none;stroke-width:0.353;stroke-linecap:butt;stroke-linejoin:round;stroke-dasharray:none" /><path
       id="use5"
       d="m 77.799243,29.062907 c 0.280674,0 0.549889,-0.111513 0.748355,-0.309979 0.198465,-0.198465 0.309978,-0.467681 0.309978,-0.748354 0,-0.280674 -0.111513,-0.549889 -0.309978,-0.748355 -0.198466,-0.198465 -0.467681,-0.309979 -0.748355,-0.309979 -0.280673,0 -0.549889,0.111514 -0.748354,0.309979 -0.198466,0.198466 -0.309979,0.467681 -0.309979,0.748355 0,0.280673 0.111513,0.549889 0.309979,0.748354 0.198465,0.198466 0.467681,0.309979 0.748354,0.309979 z"
       style="fill:#bf616a;fill-opacity:1;stroke:none;stroke-width:0.353;stroke-linecap:butt;stroke-linejoin:round;stroke-dasharray:none" /><path
       id="use6"
       d="m 77.362617,51.313744 c 0.280674,0 0.549889,-0.111513 0.748355,-0.309979 0.198465,-0.198465 0.309978,-0.467681 0.309978,-0.748354 0,-0.280674 -0.111513,-0.549889 -0.309978,-0.748355 -0.198466,-0.198466 -0.467681,-0.309979 -0.748355,-0.309979 -0.280673,0 -0.549889,0.111513 -0.748354,0.309979 -0.198467,0.198466 -0.30998,0.467681 -0.30998,0.748355 0,0.280673 0.111513,0.549889 0.30998,0.748354 0.198465,0.198466 0.467681,0.309979 0.748354,0.309979 z"
       style="fill:#bf616a;fill-opacity:1;stroke:none;stroke-width:0.353;stroke-linecap:butt;stroke-linejoin:round;stroke-dasharray:none" /><path
       id="use7"
       d="m 71.837036,30.48445 c 0.280673,0 0.549889,-0.111513 0.748355,-0.309979 0.198466,-0.198466 0.309978,-0.467681 0.309978,-0.748354 0,-0.280674 -0.111512,-0.549889 -0.309978,-0.748355 -0.198466,-0.198466 -0.467682,-0.309979 -0.748355,-0.309979 -0.280673,0 -0.549889,0.111513 -0.748355,0.309979 -0.198466,0.198466 -0.309978,0.467681 -0.309978,0.748355 0,0.280673 0.111512,0.549888 0.309978,0.748354 0.198466,0.198466 0.467682,0.309979 0.748355,0.309979 z"
       style="fill:#bf616a;fill-opacity:1;stroke:none;stroke-width:0.353;stroke-linecap:butt;stroke-linejoin:round;stroke-dasharray:none" /><path
       id="use8"
       d="m 74.284585,58.280198 c 0.280673,0 0.549889,-0.11151 0.748355,-0.30997 0.198466,-0.19847 0.309979,-0.46769 0.309979,-0.74836 0,-0.28067 -0.111513,-0.54989 -0.309979,-0.74835 -0.198466,-0.19847 -0.467682,-0.30998 -0.748355,-0.30998 -0.280673,0 -0.549889,0.11151 -0.748354,0.30998 -0.198466,0.19846 -0.309979,0.46768 -0.309979,0.74835 0,0.28067 0.111513,0.54989 0.309979,0.74836 0.198465,0.19846 0.467681,0.30997 0.748354,0.30997 z"
       style="fill:#bf616a;fill-opacity:1;stroke:none;stroke-width:0.353;stroke-linecap:butt;stroke-linejoin:round;stroke-dasharray:none" /><path
       id="use9"
       d="m 149.70699,-59.559588 c 0.28067,0 0.54989,-0.111513 0.74836,-0.309979 0.19846,-0.198466 0.30997,-0.467681 0.30997,-0.748354 0,-0.280674 -0.11151,-0.549889 -0.30997,-0.748355 -0.19847,-0.198466 -0.46769,-0.309979 -0.74836,-0.309979 -0.28067,0 -0.54989,0.111513 -0.74835,0.309979 -0.19847,0.198466 -0.30998,0.467681 -0.30998,0.748355 0,0.280673 0.11151,0.549888 0.30998,0.748354 0.19846,0.198466 0.46768,0.309979 0.74835,0.309979 z"
       style="fill:#ebcb8b;fill-opacity:1;stroke:none;stroke-width:0.353;stroke-linecap:butt;stroke-linejoin:round;stroke-dasharray:none" /><path
       id="use10"
       d="m 160.97308,-53.923791 c 0.28067,0 0.54988,-0.111513 0.74835,-0.309979 0.19847,-0.198466 0.30998,-0.467682 0.30998,-0.748355 0,-0.280673 -0.11151,-0.549889 -0.30998,-0.748354 -0.19847,-0.198466 -0.46768,-0.309979 -0.74835,-0.309979 -0.28068,0 -0.54989,0.111513 -0.74836,0.309979 -0.19846,0.198465 -0.30998,0.467681 -0.30998,0.748354 0,0.280673 0.11152,0.549889 0.30998,0.748355 0.19847,0.198466 0.46768,0.309979 0.74836,0.309979 z"
       style="fill:#ebcb8b;fill-opacity:1;stroke:none;stroke-width:0.353;stroke-linecap:butt;stroke-linejoin:round;stroke-dasharray:none" /><path
       id="use11"
       d="m 173.73328,-61.796281 c 0.28067,0 0.54989,-0.111513 0.74835,-0.309979 0.19847,-0.198466 0.30998,-0.467682 0.30998,-0.748355 0,-0.280673 -0.11151,-0.549889 -0.30998,-0.748354 -0.19846,-0.198466 -0.46768,-0.309979 -0.74835,-0.309979 -0.28067,0 -0.54989,0.111513 -0.74835,0.309979 -0.19847,0.198465 -0.30998,0.467681 -0.30998,0.748354 0,0.280673 0.11151,0.549889 0.30998,0.748355 0.19846,0.198466 0.46768,0.309979 0.74835,0.309979 z"
       style="fill:#ebcb8b;fill-opacity:1;stroke:none;stroke-width:0.353;stroke-linecap:butt;stroke-linejoin:round;stroke-dasharray:none" /><path
       id="use12"
       d="m 159.9491,-57.163995 c 0.28067,0 0.54988,-0.111513 0.74835,-0.309979 0.19847,-0.198466 0.30998,-0.467681 0.30998,-0.748355 0,-0.280673 -0.11151,-0.549888 -0.30998,-0.748354 -0.19847,-0.198466 -0.46768,-0.309979 -0.74835,-0.309979 -0.28067,0 -0.54989,0.111513 -0.74836,0.309979 -0.19846,0.198466 -0.30998,0.467681 -0.30998,0.748354 0,0.280674 0.11152,0.549889 0.30998,0.748355 0.19847,0.198466 0.46769,0.309979 0.74836,0.309979 z"
       style="fill:#ebcb8b;fill-opacity:1;stroke:none;stroke-width:0.353;stroke-linecap:butt;stroke-linejoin:round;stroke-dasharray:none" /><path
       id="use13"
       d="m 156.0032,-64.110207 c 0.28068,0 0.54989,-0.111512 0.74836,-0.309978 0.19846,-0.198466 0.30998,-0.467682 0.30998,-0.748355 0,-0.280673 -0.11152,-0.549889 -0.30998,-0.748354 -0.19847,-0.198466 -0.46768,-0.309979 -0.74836,-0.309979 -0.28067,0 -0.54989,0.111513 -0.74835,0.309979 -0.19847,0.198465 -0.30998,0.467681 -0.30998,0.748354 0,0.280673 0.11151,0.549889 0.30998,0.748355 0.19846,0.198466 0.46768,0.309978 0.74835,0.309978 z"
       style="fill:#ebcb8b;fill-opacity:1;stroke:none;stroke-width:0.353;stroke-linecap:butt;stroke-linejoin:round;stroke-dasharray:none" /><path
       id="use14"
       d="m 149.32403,-57.242888 c 0.28067,0 0.54988,-0.111513 0.74835,-0.309979 0.19847,-0.198466 0.30998,-0.467681 0.30998,-0.748354 0,-0.280674 -0.11151,-0.549889 -0.30998,-0.748355 -0.19847,-0.198466 -0.46768,-0.309979 -0.74835,-0.309979 -0.28068,0 -0.54989,0.111513 -0.74836,0.309979 -0.19846,0.198466 -0.30998,0.467681 -0.30998,0.748355 0,0.280673 0.11152,0.549888 0.30998,0.748354 0.19847,0.198466 0.46768,0.309979 0.74836,0.309979 z"
       style="fill:#ebcb8b;fill-opacity:1;stroke:none;stroke-width:0.353;stroke-linecap:butt;stroke-linejoin:round;stroke-dasharray:none" /><path
       id="use15"
       d="m 150.90006,-52.444847 c 0.28067,0 0.54989,-0.111513 0.74835,-0.309979 0.19847,-0.198466 0.30998,-0.467681 0.30998,-0.748355 0,-0.280672 -0.11151,-0.549888 -0.30998,-0.748354 -0.19846,-0.198466 -0.46768,-0.309978 -0.74835,-0.309978 -0.28067,0 -0.54989,0.111512 -0.74835,0.309978 -0.19847,0.198466 -0.30998,0.467682 -0.30998,0.748354 0,0.280674 0.11151,0.549889 0.30998,0.748355 0.19846,0.198466 0.46768,0.309979 0.74835,0.309979 z"
       style="fill:#ebcb8b;fill-opacity:1;stroke:none;stroke-width:0.353;stroke-linecap:butt;stroke-linejoin:round;stroke-dasharray:none" /><path
       style="fill:none;stroke:#4c566a;stroke-width:0.39;stroke-linecap:butt;stroke-linejoin:miter;stroke-dasharray:none;stroke-opacity:1;marker-end:url(#Triangle)"
       d="M 51.740689,64.434748 H 190.72926"
       id="path1" /><path
       style="fill:none;stroke:#4c566a;stroke-width:0.39;stroke-linecap:butt;stroke-linejoin:miter;stroke-dasharray:none;stroke-opacity:1;marker-end:url(#Triangle)"
       d="M 51.935689,64.629748 V -74.358832"
       id="path3" /><text
       xml:space="preserve"
       style="font-style:normal;font-variant:normal;font-weight:normal;font-stretch:normal;font-size:3.88056px;line-height:1.25;font-family:'Iosevka Aile';-inkscape-font-specification:'Iosevka Aile';text-align:center;text-anchor:middle;fill:#d8dee9;stroke-width:0.264583"
       x="5.4910336"
       y="48.315727"
       id="text3"
       transform="rotate(-90)"><tspan
         sodipodi:role="line"
         id="tspan3"
         style="font-style:normal;font-variant:normal;font-weight:normal;font-stretch:normal;font-family:'Iosevka Aile';-inkscape-font-specification:'Iosevka Aile';text-align:center;text-anchor:middle;fill:#d8dee9;stroke-width:0.264583"
         x="5.4910336"
         y="48.315727">Weight</tspan></text><text
       xml:space="preserve"
       style="font-style:normal;font-variant:normal;font-weight:normal;font-stretch:normal;font-size:3.88056px;line-height:1.25;font-family:'Iosevka Aile';-inkscape-font-specification:'Iosevka Aile';text-align:center;text-anchor:middle;fill:#d8dee9;stroke-width:0.264583"
       x="121.83042"
       y="70.041557"
       id="text4"><tspan
         sodipodi:role="line"
         id="tspan4"
         style="font-style:normal;font-variant:normal;font-weight:normal;font-stretch:normal;font-family:'Iosevka Aile';-inkscape-font-specification:'Iosevka Aile';text-align:center;text-anchor:middle;fill:#d8dee9;stroke-width:0.264583"
         x="121.83042"
         y="70.041557">Height</tspan></text><rect
       style="fill:#3b4252;fill-opacity:1;stroke:#4c566a;stroke-width:0.39;stroke-linecap:round;stroke-dasharray:none;stroke-opacity:1"
       id="rect4"
       width="34.483734"
       height="37.12513"
       x="57.709366"
       y="-69.76432" /><path
       id="path5"
       d="m 65.572699,-49.437895 c 0.280673,0 0.549889,-0.111513 0.748354,-0.309979 0.198466,-0.198465 0.309979,-0.467681 0.309979,-0.748354 0,-0.280674 -0.111513,-0.549889 -0.309979,-0.748355 -0.198465,-0.198465 -0.467681,-0.309978 -0.748354,-0.309978 -0.280673,0 -0.549889,0.111513 -0.748354,0.309978 -0.198467,0.198466 -0.309979,0.467681 -0.309979,0.748355 0,0.280673 0.111513,0.549889 0.309979,0.748354 0.198465,0.198466 0.467681,0.309979 0.748354,0.309979 z"
       style="fill:#bf616a;fill-opacity:1;stroke:none;stroke-width:0.353;stroke-linecap:butt;stroke-linejoin:round;stroke-dasharray:none" /><path
       id="path6"
       d="m 65.572705,-59.898015 c 0.28067,0 0.54988,-0.111513 0.74835,-0.309979 0.19847,-0.198466 0.309981,-0.467682 0.309981,-0.748355 0,-0.280673 -0.111511,-0.549889 -0.309981,-0.748354 -0.19847,-0.198466 -0.46768,-0.309979 -0.74835,-0.309979 -0.280679,0 -0.549889,0.111513 -0.748359,0.309979 -0.19846,0.198465 -0.30998,0.467681 -0.30998,0.748354 0,0.280673 0.11152,0.549889 0.30998,0.748355 0.19847,0.198466 0.46768,0.309979 0.748359,0.309979 z"
       style="fill:#ebcb8b;fill-opacity:1;stroke:none;stroke-width:0.353;stroke-linecap:butt;stroke-linejoin:round;stroke-dasharray:none" /><text
       xml:space="preserve"
       style="font-style:normal;font-variant:normal;font-weight:normal;font-stretch:normal;font-size:3.88056px;line-height:1.25;font-family:'Iosevka Aile';-inkscape-font-specification:'Iosevka Aile';text-align:start;text-anchor:start;fill:#d8dee9;stroke-width:0.264583"
       x="68.880188"
       y="-49.35849"
       id="text6"><tspan
         sodipodi:role="line"
         id="tspan6"
         style="font-style:normal;font-variant:normal;font-weight:normal;font-stretch:normal;font-family:'Iosevka Aile';-inkscape-font-specification:'Iosevka Aile';text-align:start;text-anchor:start;fill:#d8dee9;stroke-width:0.264583"
         x="68.880188"
         y="-49.35849">Cat</tspan></text><text
       xml:space="preserve"
       style="font-style:normal;font-variant:normal;font-weight:normal;font-stretch:normal;font-size:3.88056px;line-height:1.25;font-family:'Iosevka Aile';-inkscape-font-specification:'Iosevka Aile';text-align:start;text-anchor:start;fill:#d8dee9;stroke-width:0.264583"
       x="68.887947"
       y="-59.931881"
       id="text7"><tspan
         sodipodi:role="line"
         id="tspan7"
         style="font-style:normal;font-variant:normal;font-weight:normal;font-stretch:normal;font-family:'Iosevka Aile';-inkscape-font-specification:'Iosevka Aile';text-align:start;text-anchor:start;fill:#d8dee9;stroke-width:0.264583"
         x="68.887947"
         y="-59.931881">Sheep</tspan></text><path
       id="path8"
       d="m 83.059517,23.030357 c 0.28067,0 0.54989,-0.111513 0.74835,-0.309979 0.19847,-0.198466 0.30998,-0.467682 0.30998,-0.748355 0,-0.280673 -0.11151,-0.549889 -0.30998,-0.748354 -0.19846,-0.198466 -0.46768,-0.309979 -0.74835,-0.309979 -0.28067,0 -0.54989,0.111513 -0.74835,0.309979 -0.19847,0.198465 -0.30998,0.467681 -0.30998,0.748354 0,0.280673 0.11151,0.549889 0.30998,0.748355 0.19846,0.198466 0.46768,0.309979 0.74835,0.309979 z"
       style="fill:#5e81ac;fill-opacity:1;stroke:none;stroke-width:0.353;stroke-linecap:butt;stroke-linejoin:round;stroke-dasharray:none" /><text
       xml:space="preserve"
       style="font-style:normal;font-variant:normal;font-weight:normal;font-stretch:normal;font-size:3.88056px;line-height:1.25;font-family:'Iosevka Aile';-inkscape-font-specification:'Iosevka Aile';text-align:start;text-anchor:start;fill:#d8dee9;stroke-width:0.264583"
       x="68.849144"
       y="-39.475235"
       id="text9"><tspan
         sodipodi:role="line"
         id="tspan9"
         style="font-style:normal;font-variant:normal;font-weight:normal;font-stretch:normal;font-family:'Iosevka Aile';-inkscape-font-specification:'Iosevka Aile';text-align:start;text-anchor:start;fill:#d8dee9;stroke-width:0.264583"
         x="68.849144"
         y="-39.475235">Unknown</tspan></text><path
       id="path9"
       d="m 65.572699,-39.827486 c 0.280673,0 0.549889,-0.111513 0.748354,-0.309979 0.198466,-0.198465 0.309979,-0.467681 0.309979,-0.748354 0,-0.280674 -0.111513,-0.549889 -0.309979,-0.748355 -0.198465,-0.198465 -0.467681,-0.309978 -0.748354,-0.309978 -0.280673,0 -0.549889,0.111513 -0.748354,0.309978 -0.198467,0.198466 -0.309979,0.467681 -0.309979,0.748355 0,0.280673 0.111513,0.549889 0.309979,0.748354 0.198465,0.198466 0.467681,0.309979 0.748354,0.309979 z"
       style="fill:#5e81ac;fill-opacity:1;stroke:none;stroke-width:0.353;stroke-linecap:butt;stroke-linejoin:round;stroke-dasharray:none" /></g></svg>
