<?xml version="1.0" encoding="UTF-8" standalone="no"?>
<!-- Created with Inkscape (http://www.inkscape.org/) -->

<svg
   width="146.65067mm"
   height="146.65068mm"
   viewBox="0 0 146.65067 146.65067"
   version="1.1"
   id="svg5"
   inkscape:version="1.3 (0e150ed6c4, 2023-07-21)"
   sodipodi:docname="ikk_classifier_sheep_cat.svg"
   xml:space="preserve"
   xmlns:inkscape="http://www.inkscape.org/namespaces/inkscape"
   xmlns:sodipodi="http://sodipodi.sourceforge.net/DTD/sodipodi-0.dtd"
   xmlns="http://www.w3.org/2000/svg"
   xmlns:svg="http://www.w3.org/2000/svg"><sodipodi:namedview
     id="namedview7"
     pagecolor="#313744"
     bordercolor="#5e81ac"
     borderopacity="1"
     inkscape:pageshadow="0"
     inkscape:pageopacity="0"
     inkscape:pagecheckerboard="0"
     inkscape:document-units="mm"
     showgrid="false"
     inkscape:zoom="0.6678429"
     inkscape:cx="827.29037"
     inkscape:cy="410.27613"
     inkscape:window-width="1920"
     inkscape:window-height="1005"
     inkscape:window-x="0"
     inkscape:window-y="0"
     inkscape:window-maximized="1"
     inkscape:current-layer="layer1"
     inkscape:showpageshadow="0"
     inkscape:deskcolor="#4c566a"
     showborder="true" /><defs
     id="defs2"><marker
       style="overflow:visible"
       id="Triangle"
       refX="0"
       refY="0"
       orient="auto-start-reverse"
       inkscape:stockid="Triangle arrow"
       markerWidth="1"
       markerHeight="1"
       viewBox="0 0 1 1"
       inkscape:isstock="true"
       inkscape:collect="always"
       preserveAspectRatio="xMidYMid"><path
         transform="scale(0.5)"
         style="fill:context-stroke;fill-rule:evenodd;stroke:context-stroke;stroke-width:1pt"
         d="M 5.77,0 -2.88,5 V -5 Z"
         id="path135" /></marker><clipPath
       clipPathUnits="userSpaceOnUse"
       id="clipPath24"><g
         id="g25"
         style="stroke-width:1"><rect
           x="54"
           y="51.84"
           width="334.79999"
           height="332.64001"
           id="rect24"
           style="stroke-width:1" /></g></clipPath><clipPath
       clipPathUnits="userSpaceOnUse"
       id="clipPath25"><g
         id="g26"
         style="stroke-width:1"><rect
           x="54"
           y="51.84"
           width="334.79999"
           height="332.64001"
           id="rect25"
           style="stroke-width:1" /></g></clipPath><clipPath
       clipPathUnits="userSpaceOnUse"
       id="clipPath26"><g
         id="g27"
         style="stroke-width:1"><rect
           x="54"
           y="51.84"
           width="334.79999"
           height="332.64001"
           id="rect26"
           style="stroke-width:1" /></g></clipPath><clipPath
       clipPathUnits="userSpaceOnUse"
       id="clipPath27"><g
         id="g28"
         style="stroke-width:1"><rect
           x="54"
           y="51.84"
           width="334.79999"
           height="332.64001"
           id="rect27"
           style="stroke-width:1" /></g></clipPath><clipPath
       clipPathUnits="userSpaceOnUse"
       id="clipPath28"><g
         id="g29"
         style="stroke-width:1"><rect
           x="54"
           y="51.84"
           width="334.79999"
           height="332.64001"
           id="rect28"
           style="stroke-width:1" /></g></clipPath><clipPath
       clipPathUnits="userSpaceOnUse"
       id="clipPath29"><g
         id="g30"
         style="stroke-width:1"><rect
           x="54"
           y="51.84"
           width="334.79999"
           height="332.64001"
           id="rect29"
           style="stroke-width:1" /></g></clipPath><clipPath
       clipPathUnits="userSpaceOnUse"
       id="clipPath30"><g
         id="g31"
         style="stroke-width:1"><rect
           x="54"
           y="51.84"
           width="334.79999"
           height="332.64001"
           id="rect30"
           style="stroke-width:1" /></g></clipPath><clipPath
       clipPathUnits="userSpaceOnUse"
       id="clipPath16"><g
         id="g17"
         style="stroke-width:1"><rect
           x="54"
           y="51.84"
           width="334.79999"
           height="332.64001"
           id="rect17"
           style="stroke-width:1" /></g></clipPath><clipPath
       clipPathUnits="userSpaceOnUse"
       id="clipPath17"><g
         id="g18"
         style="stroke-width:1"><rect
           x="54"
           y="51.84"
           width="334.79999"
           height="332.64001"
           id="rect18"
           style="stroke-width:1" /></g></clipPath><clipPath
       clipPathUnits="userSpaceOnUse"
       id="clipPath18"><g
         id="g19"
         style="stroke-width:1"><rect
           x="54"
           y="51.84"
           width="334.79999"
           height="332.64001"
           id="rect19"
           style="stroke-width:1" /></g></clipPath><clipPath
       clipPathUnits="userSpaceOnUse"
       id="clipPath19"><g
         id="g20"
         style="stroke-width:1"><rect
           x="54"
           y="51.84"
           width="334.79999"
           height="332.64001"
           id="rect20"
           style="stroke-width:1" /></g></clipPath><clipPath
       clipPathUnits="userSpaceOnUse"
       id="clipPath20"><g
         id="g21"
         style="stroke-width:1"><rect
           x="54"
           y="51.84"
           width="334.79999"
           height="332.64001"
           id="rect21"
           style="stroke-width:1" /></g></clipPath><clipPath
       clipPathUnits="userSpaceOnUse"
       id="clipPath21"><g
         id="g22"
         style="stroke-width:1"><rect
           x="54"
           y="51.84"
           width="334.79999"
           height="332.64001"
           id="rect22"
           style="stroke-width:1" /></g></clipPath><clipPath
       clipPathUnits="userSpaceOnUse"
       id="clipPath22"><g
         id="g23"
         style="stroke-width:1"><rect
           x="54"
           y="51.84"
           width="334.79999"
           height="332.64001"
           id="rect23"
           style="stroke-width:1" /></g></clipPath></defs><g
     inkscape:groupmode="layer"
     id="layer3"
     inkscape:label="Capa 2"
     style="display:inline"
     sodipodi:insensitive="true"
     transform="translate(-45.463516,75.743751)" /><g
     inkscape:label="Capa 1"
     inkscape:groupmode="layer"
     id="layer1"
     transform="translate(-45.463516,75.743751)"><text
       xml:space="preserve"
       style="font-size:3.88056px;line-height:1.25;font-family:'Droid Sans';-inkscape-font-specification:'Droid Sans';stroke-width:0.264583"
       x="67.932114"
       y="-44.777832"
       id="text8"><tspan
         sodipodi:role="line"
         id="tspan8"
         style="stroke-width:0.264583"
         x="67.932114"
         y="-44.777832" /></text><path
       id="use2"
       d="m 72.718297,16.993815 c 0.280673,0 0.549889,-0.111513 0.748354,-0.309979 0.198466,-0.198465 0.309979,-0.467681 0.309979,-0.748354 0,-0.280674 -0.111513,-0.549889 -0.309979,-0.748355 -0.198465,-0.198465 -0.467681,-0.309978 -0.748354,-0.309978 -0.280673,0 -0.549889,0.111513 -0.748355,0.309978 -0.198466,0.198466 -0.309979,0.467681 -0.309979,0.748355 0,0.280673 0.111513,0.549889 0.309979,0.748354 0.198466,0.198466 0.467682,0.309979 0.748355,0.309979 z"
       style="fill:#bf616a;fill-opacity:1;stroke:none;stroke-width:0.353;stroke-linecap:butt;stroke-linejoin:round;stroke-dasharray:none" /><path
       id="use3"
       d="m 65.639662,47.094515 c 0.280673,0 0.549889,-0.111513 0.748354,-0.309979 0.198467,-0.198466 0.309979,-0.467681 0.309979,-0.748354 0,-0.280674 -0.111512,-0.549889 -0.309979,-0.748355 -0.198465,-0.198466 -0.467681,-0.309979 -0.748354,-0.309979 -0.280673,0 -0.549889,0.111513 -0.748355,0.309979 -0.198466,0.198466 -0.309978,0.467681 -0.309978,0.748355 0,0.280673 0.111512,0.549888 0.309978,0.748354 0.198466,0.198466 0.467682,0.309979 0.748355,0.309979 z"
       style="fill:#bf616a;fill-opacity:1;stroke:none;stroke-width:0.353;stroke-linecap:butt;stroke-linejoin:round;stroke-dasharray:none" /><path
       id="use4"
       d="m 76.666474,41.619125 c 0.280673,0 0.549889,-0.111509 0.748354,-0.309979 0.198466,-0.198465 0.309979,-0.467681 0.309979,-0.748354 0,-0.28067 -0.111513,-0.549889 -0.309979,-0.748355 -0.198465,-0.198465 -0.467681,-0.309978 -0.748354,-0.309978 -0.280674,0 -0.54989,0.111513 -0.748355,0.309978 -0.198467,0.198466 -0.309979,0.467685 -0.309979,0.748355 0,0.280673 0.111512,0.549889 0.309979,0.748354 0.198465,0.19847 0.467681,0.309979 0.748355,0.309979 z"
       style="fill:#bf616a;fill-opacity:1;stroke:none;stroke-width:0.353;stroke-linecap:butt;stroke-linejoin:round;stroke-dasharray:none" /><path
       id="use5"
       d="m 77.799243,29.062907 c 0.280674,0 0.549889,-0.111513 0.748355,-0.309979 0.198465,-0.198465 0.309978,-0.467681 0.309978,-0.748354 0,-0.280674 -0.111513,-0.549889 -0.309978,-0.748355 -0.198466,-0.198465 -0.467681,-0.309979 -0.748355,-0.309979 -0.280673,0 -0.549889,0.111514 -0.748354,0.309979 -0.198466,0.198466 -0.309979,0.467681 -0.309979,0.748355 0,0.280673 0.111513,0.549889 0.309979,0.748354 0.198465,0.198466 0.467681,0.309979 0.748354,0.309979 z"
       style="fill:#bf616a;fill-opacity:1;stroke:none;stroke-width:0.353;stroke-linecap:butt;stroke-linejoin:round;stroke-dasharray:none" /><path
       id="use6"
       d="m 77.362617,51.313744 c 0.280674,0 0.549889,-0.111513 0.748355,-0.309979 0.198465,-0.198465 0.309978,-0.467681 0.309978,-0.748354 0,-0.280674 -0.111513,-0.549889 -0.309978,-0.748355 -0.198466,-0.198466 -0.467681,-0.309979 -0.748355,-0.309979 -0.280673,0 -0.549889,0.111513 -0.748354,0.309979 -0.198467,0.198466 -0.30998,0.467681 -0.30998,0.748355 0,0.280673 0.111513,0.549889 0.30998,0.748354 0.198465,0.198466 0.467681,0.309979 0.748354,0.309979 z"
       style="fill:#bf616a;fill-opacity:1;stroke:none;stroke-width:0.353;stroke-linecap:butt;stroke-linejoin:round;stroke-dasharray:none" /><path
       id="use7"
       d="m 71.837036,30.48445 c 0.280673,0 0.549889,-0.111513 0.748355,-0.309979 0.198466,-0.198466 0.309978,-0.467681 0.309978,-0.748354 0,-0.280674 -0.111512,-0.549889 -0.309978,-0.748355 -0.198466,-0.198466 -0.467682,-0.309979 -0.748355,-0.309979 -0.280673,0 -0.549889,0.111513 -0.748355,0.309979 -0.198466,0.198466 -0.309978,0.467681 -0.309978,0.748355 0,0.280673 0.111512,0.549888 0.309978,0.748354 0.198466,0.198466 0.467682,0.309979 0.748355,0.309979 z"
       style="fill:#bf616a;fill-opacity:1;stroke:none;stroke-width:0.353;stroke-linecap:butt;stroke-linejoin:round;stroke-dasharray:none" /><path
       id="use8"
       d="m 74.284585,58.280198 c 0.280673,0 0.549889,-0.11151 0.748355,-0.30997 0.198466,-0.19847 0.309979,-0.46769 0.309979,-0.74836 0,-0.28067 -0.111513,-0.54989 -0.309979,-0.74835 -0.198466,-0.19847 -0.467682,-0.30998 -0.748355,-0.30998 -0.280673,0 -0.549889,0.11151 -0.748354,0.30998 -0.198466,0.19846 -0.309979,0.46768 -0.309979,0.74835 0,0.28067 0.111513,0.54989 0.309979,0.74836 0.198465,0.19846 0.467681,0.30997 0.748354,0.30997 z"
       style="fill:#bf616a;fill-opacity:1;stroke:none;stroke-width:0.353;stroke-linecap:butt;stroke-linejoin:round;stroke-dasharray:none" /><path
       id="use9"
       d="m 149.70699,-59.559588 c 0.28067,0 0.54989,-0.111513 0.74836,-0.309979 0.19846,-0.198466 0.30997,-0.467681 0.30997,-0.748354 0,-0.280674 -0.11151,-0.549889 -0.30997,-0.748355 -0.19847,-0.198466 -0.46769,-0.309979 -0.74836,-0.309979 -0.28067,0 -0.54989,0.111513 -0.74835,0.309979 -0.19847,0.198466 -0.30998,0.467681 -0.30998,0.748355 0,0.280673 0.11151,0.549888 0.30998,0.748354 0.19846,0.198466 0.46768,0.309979 0.74835,0.309979 z"
       style="fill:#ebcb8b;fill-opacity:1;stroke:none;stroke-width:0.353;stroke-linecap:butt;stroke-linejoin:round;stroke-dasharray:none" /><path
       id="use10"
       d="m 160.97308,-53.923791 c 0.28067,0 0.54988,-0.111513 0.74835,-0.309979 0.19847,-0.198466 0.30998,-0.467682 0.30998,-0.748355 0,-0.280673 -0.11151,-0.549889 -0.30998,-0.748354 -0.19847,-0.198466 -0.46768,-0.309979 -0.74835,-0.309979 -0.28068,0 -0.54989,0.111513 -0.74836,0.309979 -0.19846,0.198465 -0.30998,0.467681 -0.30998,0.748354 0,0.280673 0.11152,0.549889 0.30998,0.748355 0.19847,0.198466 0.46768,0.309979 0.74836,0.309979 z"
       style="fill:#ebcb8b;fill-opacity:1;stroke:none;stroke-width:0.353;stroke-linecap:butt;stroke-linejoin:round;stroke-dasharray:none" /><path
       id="use11"
       d="m 173.73328,-61.796281 c 0.28067,0 0.54989,-0.111513 0.74835,-0.309979 0.19847,-0.198466 0.30998,-0.467682 0.30998,-0.748355 0,-0.280673 -0.11151,-0.549889 -0.30998,-0.748354 -0.19846,-0.198466 -0.46768,-0.309979 -0.74835,-0.309979 -0.28067,0 -0.54989,0.111513 -0.74835,0.309979 -0.19847,0.198465 -0.30998,0.467681 -0.30998,0.748354 0,0.280673 0.11151,0.549889 0.30998,0.748355 0.19846,0.198466 0.46768,0.309979 0.74835,0.309979 z"
       style="fill:#ebcb8b;fill-opacity:1;stroke:none;stroke-width:0.353;stroke-linecap:butt;stroke-linejoin:round;stroke-dasharray:none" /><path
       id="use12"
       d="m 159.9491,-57.163995 c 0.28067,0 0.54988,-0.111513 0.74835,-0.309979 0.19847,-0.198466 0.30998,-0.467681 0.30998,-0.748355 0,-0.280673 -0.11151,-0.549888 -0.30998,-0.748354 -0.19847,-0.198466 -0.46768,-0.309979 -0.74835,-0.309979 -0.28067,0 -0.54989,0.111513 -0.74836,0.309979 -0.19846,0.198466 -0.30998,0.467681 -0.30998,0.748354 0,0.280674 0.11152,0.549889 0.30998,0.748355 0.19847,0.198466 0.46769,0.309979 0.74836,0.309979 z"
       style="fill:#ebcb8b;fill-opacity:1;stroke:none;stroke-width:0.353;stroke-linecap:butt;stroke-linejoin:round;stroke-dasharray:none" /><path
       id="use13"
       d="m 156.0032,-64.110207 c 0.28068,0 0.54989,-0.111512 0.74836,-0.309978 0.19846,-0.198466 0.30998,-0.467682 0.30998,-0.748355 0,-0.280673 -0.11152,-0.549889 -0.30998,-0.748354 -0.19847,-0.198466 -0.46768,-0.309979 -0.74836,-0.309979 -0.28067,0 -0.54989,0.111513 -0.74835,0.309979 -0.19847,0.198465 -0.30998,0.467681 -0.30998,0.748354 0,0.280673 0.11151,0.549889 0.30998,0.748355 0.19846,0.198466 0.46768,0.309978 0.74835,0.309978 z"
       style="fill:#ebcb8b;fill-opacity:1;stroke:none;stroke-width:0.353;stroke-linecap:butt;stroke-linejoin:round;stroke-dasharray:none" /><path
       id="use14"
       d="m 149.32403,-57.242888 c 0.28067,0 0.54988,-0.111513 0.74835,-0.309979 0.19847,-0.198466 0.30998,-0.467681 0.30998,-0.748354 0,-0.280674 -0.11151,-0.549889 -0.30998,-0.748355 -0.19847,-0.198466 -0.46768,-0.309979 -0.74835,-0.309979 -0.28068,0 -0.54989,0.111513 -0.74836,0.309979 -0.19846,0.198466 -0.30998,0.467681 -0.30998,0.748355 0,0.280673 0.11152,0.549888 0.30998,0.748354 0.19847,0.198466 0.46768,0.309979 0.74836,0.309979 z"
       style="fill:#ebcb8b;fill-opacity:1;stroke:none;stroke-width:0.353;stroke-linecap:butt;stroke-linejoin:round;stroke-dasharray:none" /><path
       id="use15"
       d="m 150.90006,-52.444847 c 0.28067,0 0.54989,-0.111513 0.74835,-0.309979 0.19847,-0.198466 0.30998,-0.467681 0.30998,-0.748355 0,-0.280672 -0.11151,-0.549888 -0.30998,-0.748354 -0.19846,-0.198466 -0.46768,-0.309978 -0.74835,-0.309978 -0.28067,0 -0.54989,0.111512 -0.74835,0.309978 -0.19847,0.198466 -0.30998,0.467682 -0.30998,0.748354 0,0.280674 0.11151,0.549889 0.30998,0.748355 0.19846,0.198466 0.46768,0.309979 0.74835,0.309979 z"
       style="fill:#ebcb8b;fill-opacity:1;stroke:none;stroke-width:0.353;stroke-linecap:butt;stroke-linejoin:round;stroke-dasharray:none" /><path
       style="fill:none;stroke:#4c566a;stroke-width:0.39;stroke-linecap:butt;stroke-linejoin:miter;stroke-dasharray:none;stroke-opacity:1;marker-end:url(#Triangle)"
       d="M 51.740689,64.434748 H 190.72926"
       id="path1" /><path
       style="fill:none;stroke:#4c566a;stroke-width:0.39;stroke-linecap:butt;stroke-linejoin:miter;stroke-dasharray:none;stroke-opacity:1;marker-end:url(#Triangle)"
       d="M 51.935689,64.629748 V -74.358832"
       id="path3" /><path
       d="m -0.15518335,48.315727 -0.47730887,-2.852211 h 0.32208647 l 0.32208647,2.312813 0.3686532,-2.312813 H 0.70630095 L 1.0749541,47.776329 1.3970406,45.463516 H 1.7191271 L 1.2418182,48.315727 H 0.91973175 L 0.54331743,45.967988 0.16690312,48.315727 Z m 3.32563985,0.03104 q -0.1125362,0 -0.228953,-0.0194 -0.1125363,-0.0194 -0.2173114,-0.06985 Q 2.6232976,48.207072 2.5379252,48.12946 2.4564335,48.047969 2.4021056,47.947074 2.3516584,47.842299 2.328375,47.729763 2.3089722,47.617226 2.3089722,47.50081 v -0.388056 q 0,-0.112537 0.019403,-0.225073 0.019403,-0.116417 0.06985,-0.217311 0.054328,-0.100895 0.1358196,-0.182386 0.085372,-0.08149 0.1862668,-0.13194 0.1008946,-0.05045 0.2134308,-0.06985 0.1164168,-0.0194 0.2289531,-0.0194 0.1125362,0 0.2250725,0.0194 0.1164168,0.0194 0.2173113,0.06985 0.1008946,0.05045 0.1823863,0.13194 0.085372,0.08149 0.1358196,0.182386 0.054328,0.100894 0.073731,0.217311 0.019403,0.112536 0.019403,0.225073 v 0.337608 H 2.6310587 v 0.05045 q 0,0.07373 0.011642,0.147461 0.011642,0.07373 0.042686,0.1397 0.031045,0.06597 0.081492,0.124178 0.054328,0.05433 0.1164168,0.08925 0.065969,0.03104 0.1397001,0.04657 0.073731,0.01164 0.1474613,0.01164 0.085372,0 0.1668641,-0.01164 0.081492,-0.01164 0.1552224,-0.04657 0.077611,-0.03493 0.131939,-0.100895 0.054328,-0.06597 0.062089,-0.151342 h 0.3220864 q -0.00776,0.09701 -0.046567,0.186267 -0.034925,0.08925 -0.097014,0.162984 -0.062089,0.06985 -0.1435807,0.120297 -0.081492,0.05045 -0.1746252,0.08149 -0.089253,0.02716 -0.1862669,0.03493 -0.093133,0.01164 -0.1901474,0.01164 z M 2.6310587,47.163201 h 1.0632734 v -0.05045 q 0,-0.07373 -0.011642,-0.143581 -0.011642,-0.07373 -0.042686,-0.1397 -0.031045,-0.06985 -0.081492,-0.124178 -0.046567,-0.05433 -0.1125362,-0.08925 -0.06597,-0.03493 -0.1397002,-0.05045 -0.06985,-0.01552 -0.1435807,-0.01552 -0.073731,0 -0.1474613,0.01552 -0.06985,0.01552 -0.1358196,0.05045 -0.06597,0.03493 -0.1164168,0.08925 -0.046567,0.05433 -0.077611,0.124178 -0.031044,0.06597 -0.042686,0.1397 -0.011642,0.06985 -0.011642,0.143581 z m 2.1187869,1.152526 v -2.017891 h 0.3182059 v 2.017891 z m 0.159103,-2.35938 q -0.050447,0 -0.097014,-0.01164 -0.046567,-0.01552 -0.081492,-0.05045 -0.034925,-0.03493 -0.050447,-0.08149 -0.011642,-0.04657 -0.011642,-0.09701 0,-0.05045 0.011642,-0.09701 0.015522,-0.04657 0.050447,-0.08149 0.034925,-0.03493 0.081492,-0.05045 0.046567,-0.01552 0.097014,-0.01552 0.050447,0 0.097014,0.01552 0.046567,0.01552 0.081492,0.05045 0.034925,0.03492 0.050447,0.08149 0.015522,0.04657 0.015522,0.09701 0,0.05045 -0.015522,0.09701 -0.015522,0.04657 -0.050447,0.08149 -0.034925,0.03493 -0.081492,0.05045 -0.046567,0.01164 -0.097014,0.01164 z m 1.7307272,3.224745 q -0.093133,0 -0.1901474,-0.01164 -0.093133,-0.01164 -0.1823863,-0.04269 -0.089253,-0.03104 -0.1707447,-0.08537 -0.081492,-0.05045 -0.1397001,-0.128059 -0.058208,-0.07373 -0.093134,-0.162983 -0.034925,-0.08925 -0.038806,-0.186267 h 0.3220865 q 0.00388,0.08537 0.050447,0.155222 0.050447,0.06985 0.1241779,0.108656 0.073731,0.03881 0.1552224,0.05045 0.081492,0.01552 0.1629835,0.01552 0.073731,0 0.1435807,-0.01552 0.073731,-0.01164 0.1358196,-0.05045 0.062089,-0.03493 0.1086557,-0.08925 0.050447,-0.05433 0.077611,-0.120297 0.031044,-0.06597 0.038806,-0.1397 0.011642,-0.06985 0.011642,-0.143581 v -0.391937 q -0.038806,0.09313 -0.1008946,0.174626 -0.062089,0.07761 -0.1474612,0.131939 -0.081492,0.05433 -0.1823864,0.07373 -0.097014,0.02328 -0.1940279,0.02328 -0.1086557,0 -0.2134308,-0.02328 Q 6.2166948,48.300205 6.1274419,48.241997 6.038189,48.183788 5.9722195,48.098416 5.90625,48.013044 5.8674444,47.91603 5.8286388,47.815135 5.8131166,47.71036 5.8014749,47.605585 5.8014749,47.50081 v -0.388056 q 0,-0.104775 0.011642,-0.209551 0.015522,-0.104775 0.054328,-0.201789 0.038806,-0.100894 0.1047751,-0.186267 0.06597,-0.08537 0.1552224,-0.14358 0.089253,-0.05821 0.1901475,-0.08149 0.1047751,-0.02328 0.2134308,-0.02328 0.097014,0 0.1940279,0.02328 0.1008946,0.0194 0.1823864,0.07373 0.085372,0.05433 0.1474612,0.135819 0.062089,0.07761 0.1008946,0.170745 v -0.372534 h 0.3220865 v 2.037294 q 0,0.112536 -0.019403,0.225073 -0.019403,0.112536 -0.06985,0.21343 -0.050447,0.100895 -0.131939,0.182387 -0.077611,0.08149 -0.1785058,0.131939 -0.1008946,0.05433 -0.2134308,0.07373 -0.1125362,0.0194 -0.2250725,0.0194 z m 0.011642,-1.117601 q 0.073731,0 0.1435807,-0.01552 0.06985,-0.01552 0.1319391,-0.05045 0.062089,-0.0388 0.1086556,-0.09313 0.046567,-0.05821 0.073731,-0.124178 0.027164,-0.06597 0.034925,-0.13582 0.011642,-0.07373 0.011642,-0.14358 v -0.388056 q 0,-0.06985 -0.011642,-0.1397 -0.00776,-0.07373 -0.034925,-0.139701 -0.027164,-0.06597 -0.073731,-0.120297 -0.046567,-0.05821 -0.1086556,-0.09313 -0.062089,-0.03881 -0.1319391,-0.05433 -0.06985,-0.01552 -0.1435807,-0.01552 -0.073731,0 -0.1474613,0.01552 -0.06985,0.01552 -0.1358196,0.05045 -0.062089,0.03493 -0.1125362,0.09313 -0.050447,0.05433 -0.081492,0.120298 -0.027164,0.06597 -0.038806,0.1397 -0.011642,0.06985 -0.011642,0.143581 v 0.388056 q 0,0.07373 0.011642,0.147461 0.011642,0.06985 0.038806,0.13582 0.031045,0.06597 0.081492,0.124177 0.050447,0.05433 0.1125362,0.08925 0.06597,0.03493 0.1358196,0.05045 0.073731,0.01552 0.1474613,0.01552 z m 1.5095395,0.252236 v -2.852211 h 0.3220865 v 1.206854 q 0.038806,-0.09313 0.1008946,-0.170745 0.062089,-0.08149 0.1435807,-0.131939 0.081492,-0.05433 0.1785057,-0.07761 0.1008946,-0.02328 0.2017892,-0.02328 0.1008945,0 0.2017891,0.02716 0.1047751,0.02328 0.1901474,0.08149 0.085372,0.05821 0.1474613,0.147462 0.062089,0.08537 0.097014,0.182386 0.034925,0.09701 0.046567,0.201789 0.015522,0.100895 0.015522,0.20567 v 1.202973 H 9.484128 v -1.202973 q 0,-0.06985 -0.011642,-0.1397 -0.00776,-0.07373 -0.034925,-0.139701 -0.027164,-0.06597 -0.073731,-0.120297 -0.046567,-0.05821 -0.1086557,-0.09313 -0.058208,-0.03881 -0.131939,-0.05433 -0.06985,-0.01552 -0.1397002,-0.01552 -0.06985,0 -0.1435807,0.01552 -0.06985,0.01552 -0.131939,0.05433 -0.058208,0.03493 -0.1047751,0.09313 -0.046567,0.05433 -0.073731,0.120297 -0.027164,0.06597 -0.038806,0.139701 -0.00776,0.06985 -0.00776,0.1397 v 1.202973 z m 3.158777,0 q -0.06985,0 -0.139701,-0.01164 -0.06985,-0.01164 -0.135819,-0.04269 -0.06209,-0.03104 -0.112536,-0.08149 -0.04657,-0.05045 -0.07761,-0.112537 -0.03104,-0.06209 -0.04269,-0.131939 -0.01164,-0.06985 -0.01164,-0.1397 v -1.210734 h -0.48119 v -0.287162 h 0.48119 v -0.83432 h 0.318205 v 0.83432 h 0.628651 v 0.283281 h -0.628651 v 1.214615 q 0,0.04269 0.0078,0.08925 0.01164,0.04269 0.0388,0.07761 0.02716,0.03493 0.06597,0.05045 0.04269,0.01552 0.08925,0.01552 h 0.426861 v 0.287161 z"
       id="text3"
       style="font-size:3.88056px;line-height:1.25;font-family:'Iosevka Aile';-inkscape-font-specification:'Iosevka Aile';text-align:center;text-anchor:middle;fill:#d8dee9;stroke-width:0.264583"
       transform="rotate(-90)"
       aria-label="Weight" /><path
       d="m 116.06003,70.041557 v -2.852211 h 0.32208 v 1.237898 h 1.00119 v -1.237898 h 0.32208 v 2.852211 h -0.32208 v -1.331032 h -1.00119 v 1.331032 z m 3.15877,0.03105 q -0.11253,0 -0.22895,-0.0194 -0.11254,-0.0194 -0.21731,-0.06985 -0.1009,-0.05045 -0.18627,-0.128059 -0.0815,-0.08149 -0.13582,-0.182386 -0.0504,-0.104775 -0.0737,-0.217311 -0.0194,-0.112536 -0.0194,-0.228953 v -0.388056 q 0,-0.112537 0.0194,-0.225073 0.0194,-0.116417 0.0698,-0.217311 0.0543,-0.100895 0.13582,-0.182386 0.0854,-0.08149 0.18627,-0.131939 0.10089,-0.05045 0.21343,-0.06985 0.11642,-0.0194 0.22895,-0.0194 0.11254,0 0.22507,0.0194 0.11642,0.0194 0.21732,0.06985 0.10089,0.05045 0.18238,0.131939 0.0854,0.08149 0.13582,0.182386 0.0543,0.100894 0.0737,0.217311 0.0194,0.112536 0.0194,0.225073 v 0.337608 h -1.38536 v 0.05045 q 0,0.07373 0.0116,0.147461 0.0116,0.07373 0.0427,0.1397 0.0311,0.06597 0.0815,0.124178 0.0543,0.05433 0.11642,0.08925 0.066,0.03104 0.1397,0.04657 0.0737,0.01164 0.14746,0.01164 0.0854,0 0.16687,-0.01164 0.0815,-0.01164 0.15522,-0.04657 0.0776,-0.03493 0.13194,-0.100895 0.0543,-0.06597 0.0621,-0.151341 h 0.32208 q -0.008,0.09701 -0.0466,0.186266 -0.0349,0.08925 -0.097,0.162984 -0.0621,0.06985 -0.14358,0.120297 -0.0815,0.05045 -0.17462,0.08149 -0.0893,0.02716 -0.18627,0.03493 -0.0931,0.01164 -0.19015,0.01164 z m -0.53939,-1.183571 h 1.06327 v -0.05045 q 0,-0.07373 -0.0116,-0.143581 -0.0116,-0.07373 -0.0427,-0.1397 -0.031,-0.06985 -0.0815,-0.124178 -0.0466,-0.05433 -0.11254,-0.08925 -0.066,-0.03493 -0.1397,-0.05045 -0.0699,-0.01552 -0.14358,-0.01552 -0.0737,0 -0.14746,0.01552 -0.0699,0.01552 -0.13582,0.05045 -0.066,0.03493 -0.11642,0.08925 -0.0466,0.05433 -0.0776,0.124178 -0.031,0.06597 -0.0427,0.1397 -0.0116,0.06985 -0.0116,0.143581 z m 2.11878,1.152526 v -2.017891 h 0.31821 v 2.017891 z m 0.15911,-2.35938 q -0.0504,0 -0.097,-0.01164 -0.0466,-0.01552 -0.0815,-0.05045 -0.0349,-0.03493 -0.0504,-0.08149 -0.0116,-0.04657 -0.0116,-0.09701 0,-0.05045 0.0116,-0.09701 0.0155,-0.04657 0.0504,-0.08149 0.0349,-0.03493 0.0815,-0.05045 0.0466,-0.01552 0.097,-0.01552 0.0504,0 0.097,0.01552 0.0466,0.01552 0.0815,0.05045 0.0349,0.03493 0.0504,0.08149 0.0155,0.04657 0.0155,0.09701 0,0.05045 -0.0155,0.09701 -0.0155,0.04657 -0.0504,0.08149 -0.0349,0.03493 -0.0815,0.05045 -0.0466,0.01164 -0.097,0.01164 z m 1.73072,3.224745 q -0.0931,0 -0.19015,-0.01164 -0.0931,-0.01164 -0.18238,-0.04269 -0.0892,-0.03104 -0.17075,-0.08537 -0.0815,-0.05045 -0.1397,-0.128058 -0.0582,-0.07373 -0.0931,-0.162984 -0.0349,-0.08925 -0.0388,-0.186267 h 0.32209 q 0.004,0.08537 0.0504,0.155223 0.0505,0.06985 0.12418,0.108655 0.0737,0.03881 0.15522,0.05045 0.0815,0.01552 0.16298,0.01552 0.0737,0 0.14358,-0.01552 0.0737,-0.01164 0.13582,-0.05045 0.0621,-0.03493 0.10866,-0.08925 0.0504,-0.05433 0.0776,-0.120297 0.031,-0.06597 0.0388,-0.1397 0.0116,-0.06985 0.0116,-0.143581 v -0.391936 q -0.0388,0.09313 -0.1009,0.174625 -0.0621,0.07761 -0.14746,0.131939 -0.0815,0.05433 -0.18239,0.07373 -0.097,0.02328 -0.19402,0.02328 -0.10866,0 -0.21343,-0.02328 -0.1009,-0.02328 -0.19015,-0.08149 -0.0893,-0.05821 -0.15522,-0.143581 -0.066,-0.08537 -0.10478,-0.182386 -0.0388,-0.100895 -0.0543,-0.20567 -0.0116,-0.104775 -0.0116,-0.20955 v -0.388056 q 0,-0.104775 0.0116,-0.20955 0.0155,-0.104776 0.0543,-0.20179 0.0388,-0.100894 0.10478,-0.186266 0.066,-0.08537 0.15522,-0.143581 0.0892,-0.05821 0.19015,-0.08149 0.10477,-0.02328 0.21343,-0.02328 0.097,0 0.19402,0.02328 0.1009,0.0194 0.18239,0.07373 0.0854,0.05433 0.14746,0.135819 0.0621,0.07761 0.1009,0.170745 v -0.372534 h 0.32208 v 2.037294 q 0,0.112536 -0.0194,0.225073 -0.0194,0.112536 -0.0699,0.21343 -0.0504,0.100895 -0.13194,0.182387 -0.0776,0.08149 -0.1785,0.131939 -0.1009,0.05433 -0.21344,0.07373 -0.11253,0.0194 -0.22507,0.0194 z m 0.0116,-1.117601 q 0.0737,0 0.14358,-0.01552 0.0699,-0.01552 0.13194,-0.05045 0.0621,-0.0388 0.10866,-0.09313 0.0466,-0.05821 0.0737,-0.124178 0.0272,-0.06597 0.0349,-0.13582 0.0116,-0.07373 0.0116,-0.14358 v -0.388056 q 0,-0.06985 -0.0116,-0.1397 -0.008,-0.07373 -0.0349,-0.139701 -0.0272,-0.06597 -0.0737,-0.120297 -0.0466,-0.05821 -0.10866,-0.09313 -0.0621,-0.03881 -0.13194,-0.05433 -0.0698,-0.01552 -0.14358,-0.01552 -0.0737,0 -0.14746,0.01552 -0.0699,0.01552 -0.13582,0.05045 -0.0621,0.03493 -0.11253,0.09313 -0.0504,0.05433 -0.0815,0.120297 -0.0272,0.06597 -0.0388,0.1397 -0.0116,0.06985 -0.0116,0.143581 v 0.388056 q 0,0.07373 0.0116,0.147461 0.0116,0.06985 0.0388,0.13582 0.031,0.06597 0.0815,0.124178 0.0504,0.05433 0.11253,0.08925 0.066,0.03493 0.13582,0.05045 0.0737,0.01552 0.14746,0.01552 z m 1.50954,0.252236 v -2.852211 h 0.32209 V 68.3962 q 0.0388,-0.09313 0.10089,-0.170745 0.0621,-0.08149 0.14359,-0.131939 0.0815,-0.05433 0.1785,-0.07761 0.1009,-0.02328 0.20179,-0.02328 0.10089,0 0.20179,0.02716 0.10477,0.02328 0.19015,0.08149 0.0854,0.05821 0.14746,0.147462 0.0621,0.08537 0.097,0.182386 0.0349,0.09701 0.0466,0.201789 0.0155,0.100895 0.0155,0.20567 v 1.202973 h -0.32209 v -1.202973 q 0,-0.06985 -0.0116,-0.1397 -0.008,-0.07373 -0.0349,-0.139701 -0.0272,-0.06597 -0.0737,-0.120297 -0.0466,-0.05821 -0.10866,-0.09313 -0.0582,-0.03881 -0.13194,-0.05433 -0.0699,-0.01552 -0.1397,-0.01552 -0.0699,0 -0.14358,0.01552 -0.0699,0.01552 -0.13194,0.05433 -0.0582,0.03493 -0.10477,0.09313 -0.0466,0.05433 -0.0737,0.120297 -0.0272,0.06597 -0.0388,0.139701 -0.008,0.06985 -0.008,0.1397 v 1.202973 z m 3.15878,0 q -0.0699,0 -0.1397,-0.01164 -0.0699,-0.01164 -0.13582,-0.04269 -0.0621,-0.03104 -0.11254,-0.08149 -0.0466,-0.05045 -0.0776,-0.112537 -0.031,-0.06209 -0.0427,-0.131939 -0.0116,-0.06985 -0.0116,-0.1397 v -1.210734 h -0.48118 v -0.287162 h 0.48118 v -0.83432 h 0.31821 v 0.83432 h 0.62865 v 0.283281 h -0.62865 v 1.214615 q 0,0.04269 0.008,0.08925 0.0116,0.04269 0.0388,0.07761 0.0272,0.03492 0.066,0.05045 0.0427,0.01552 0.0893,0.01552 h 0.42686 v 0.287161 z"
       id="text4"
       style="font-size:3.88056px;line-height:1.25;font-family:'Iosevka Aile';-inkscape-font-specification:'Iosevka Aile';text-align:center;text-anchor:middle;fill:#d8dee9;stroke-width:0.264583"
       aria-label="Height" /><rect
       style="fill:#3b4252;fill-opacity:1;stroke:#4c566a;stroke-width:0.39;stroke-linecap:round;stroke-dasharray:none;stroke-opacity:1"
       id="rect4-3"
       width="29.314819"
       height="27.241875"
       x="57.709366"
       y="-69.76432" /><path
       id="path5-6"
       d="m 65.572699,-49.437895 c 0.280673,0 0.549889,-0.111513 0.748354,-0.309979 0.198466,-0.198465 0.309979,-0.467681 0.309979,-0.748354 0,-0.280674 -0.111513,-0.549889 -0.309979,-0.748355 -0.198465,-0.198465 -0.467681,-0.309978 -0.748354,-0.309978 -0.280673,0 -0.549889,0.111513 -0.748354,0.309978 -0.198467,0.198466 -0.309979,0.467681 -0.309979,0.748355 0,0.280673 0.111513,0.549889 0.309979,0.748354 0.198465,0.198466 0.467681,0.309979 0.748354,0.309979 z"
       style="fill:#bf616a;fill-opacity:1;stroke:none;stroke-width:0.353;stroke-linecap:butt;stroke-linejoin:round;stroke-dasharray:none" /><path
       id="path6-7"
       d="m 65.572705,-59.898015 c 0.28067,0 0.54988,-0.111513 0.74835,-0.309979 0.19847,-0.198466 0.309981,-0.467682 0.309981,-0.748355 0,-0.280673 -0.111511,-0.549889 -0.309981,-0.748354 -0.19847,-0.198466 -0.46768,-0.309979 -0.74835,-0.309979 -0.280679,0 -0.549889,0.111513 -0.748359,0.309979 -0.19846,0.198465 -0.30998,0.467681 -0.30998,0.748354 0,0.280673 0.11152,0.549889 0.30998,0.748355 0.19847,0.198466 0.46768,0.309979 0.748359,0.309979 z"
       style="fill:#ebcb8b;fill-opacity:1;stroke:none;stroke-width:0.353;stroke-linecap:butt;stroke-linejoin:round;stroke-dasharray:none" /><path
       d="m 70.032714,-49.327446 q -0.108655,0 -0.217311,-0.0194 -0.108656,-0.01552 -0.20955,-0.05821 -0.100895,-0.04657 -0.182387,-0.120297 -0.08149,-0.07373 -0.135819,-0.166864 -0.05433,-0.09701 -0.07761,-0.20567 -0.0194,-0.108655 -0.0194,-0.217311 v -1.338793 q 0,-0.108656 0.0194,-0.217312 0.02328,-0.108655 0.07761,-0.201789 0.05433,-0.09701 0.135819,-0.170744 0.08149,-0.07373 0.182387,-0.116417 0.100894,-0.04657 0.20955,-0.06209 0.108656,-0.0194 0.217311,-0.0194 0.104775,0 0.20567,0.01552 0.104775,0.01164 0.201789,0.05045 0.09701,0.0388 0.178506,0.104775 0.08537,0.06209 0.1397,0.151341 0.05821,0.08537 0.08537,0.186267 0.03105,0.100895 0.03105,0.201789 0,0.0039 0,0.0078 0,0.0039 0,0.0039 h -0.322087 q 0,0 0,0 0,-0.0039 0,-0.0039 0,-0.09701 -0.04269,-0.186267 -0.03881,-0.08925 -0.116417,-0.143581 -0.07761,-0.05821 -0.170744,-0.07761 -0.09313,-0.02328 -0.190148,-0.02328 -0.06597,0 -0.135819,0.01164 -0.06985,0.0078 -0.131939,0.03881 -0.06209,0.02716 -0.112537,0.07761 -0.05045,0.04657 -0.08537,0.108656 -0.03104,0.05821 -0.04269,0.128058 -0.01164,0.06597 -0.01164,0.13582 v 1.338793 q 0,0.06985 0.01164,0.1397 0.01164,0.06597 0.04269,0.128058 0.03493,0.05821 0.08537,0.108656 0.05045,0.04657 0.112537,0.07761 0.06209,0.02716 0.131939,0.03881 0.06985,0.0078 0.135819,0.0078 0.09701,0 0.190148,-0.0194 0.09313,-0.02328 0.170744,-0.07761 0.07761,-0.05821 0.116417,-0.147461 0.04269,-0.08925 0.04269,-0.186267 0,0 0,0 0,-0.0039 0,-0.0039 h 0.322087 q 0,0 0,0.0039 0,0.0039 0,0.0078 0,0.100895 -0.03105,0.201789 -0.02716,0.100895 -0.08537,0.190148 -0.05433,0.08537 -0.1397,0.151341 -0.08149,0.06209 -0.178506,0.100895 -0.09701,0.03881 -0.201789,0.05045 -0.100895,0.01552 -0.20567,0.01552 z m 2.149832,0 q -0.08149,0 -0.166864,-0.01164 -0.08149,-0.01164 -0.159103,-0.04269 -0.07761,-0.03104 -0.143581,-0.08149 -0.06597,-0.05433 -0.112536,-0.124178 -0.04269,-0.06985 -0.06209,-0.151342 -0.0194,-0.08149 -0.0194,-0.166864 0,-0.108656 0.03493,-0.20955 0.03493,-0.104775 0.108656,-0.182386 0.07373,-0.07761 0.166864,-0.124178 0.09701,-0.05045 0.201789,-0.07761 0.104775,-0.03104 0.20955,-0.0388 0.108656,-0.01164 0.213431,-0.01164 h 0.419101 v -0.186267 q 0,-0.06209 -0.01552,-0.120297 -0.01552,-0.05821 -0.05433,-0.104775 -0.03881,-0.04657 -0.09313,-0.07761 -0.05045,-0.03493 -0.108656,-0.05045 -0.05433,-0.0194 -0.116416,-0.02328 -0.05821,-0.0078 -0.116417,-0.0078 -0.08537,0 -0.170745,0.01552 -0.08537,0.01164 -0.162983,0.05433 -0.07373,0.03881 -0.124178,0.112536 -0.04657,0.06985 -0.04657,0.155223 0,0 0,0 0,0 0,0 h -0.322086 q 0,0 0,0 0,0 0,0 0,-0.09701 0.03104,-0.190148 0.03493,-0.09313 0.09313,-0.166864 0.06209,-0.07761 0.143581,-0.128058 0.08149,-0.05433 0.174625,-0.08537 0.09313,-0.03104 0.190148,-0.04269 0.09701,-0.01164 0.194028,-0.01164 0.100894,0 0.197908,0.01164 0.100895,0.01164 0.194028,0.04657 0.09701,0.03493 0.182387,0.09313 0.08537,0.05821 0.14358,0.1397 0.05821,0.08149 0.08149,0.182387 0.02716,0.09701 0.02716,0.197908 v 1.377599 h -0.322086 v -0.34925 q -0.04269,0.09313 -0.120298,0.170744 -0.07373,0.07373 -0.166864,0.124178 -0.09313,0.04657 -0.197908,0.06597 -0.100895,0.0194 -0.20567,0.0194 z m 0.120297,-0.28328 q 0.06985,0 0.1397,-0.01164 0.06985,-0.01164 0.13582,-0.03493 0.06597,-0.02328 0.124178,-0.06597 0.05821,-0.04269 0.09701,-0.100894 0.04269,-0.05821 0.05821,-0.128059 0.01552,-0.06985 0.01552,-0.1397 v -0.174625 h -0.419101 q -0.06209,0 -0.128058,0.0039 -0.06597,0.0039 -0.128059,0.0194 -0.06209,0.01164 -0.124178,0.03104 -0.06209,0.0194 -0.116417,0.05821 -0.05433,0.03493 -0.08537,0.09313 -0.03104,0.05821 -0.03104,0.120297 0,0.08149 0.04269,0.151342 0.04269,0.06985 0.108656,0.112536 0.06985,0.03881 0.147461,0.05433 0.08149,0.01164 0.162983,0.01164 z m 2.405949,0.252236 q -0.06985,0 -0.1397,-0.01164 -0.06985,-0.01164 -0.13582,-0.04269 -0.06209,-0.03104 -0.112536,-0.08149 -0.04657,-0.05045 -0.07761,-0.112536 -0.03105,-0.06209 -0.04269,-0.131939 -0.01164,-0.06985 -0.01164,-0.1397 v -1.210735 h -0.48119 v -0.287161 h 0.48119 v -0.834321 h 0.318206 v 0.834321 h 0.628651 v 0.283281 h -0.628651 v 1.214615 q 0,0.04269 0.0078,0.08925 0.01164,0.04269 0.03881,0.07761 0.02716,0.03493 0.06597,0.05045 0.04269,0.01552 0.08925,0.01552 h 0.426862 v 0.287161 z"
       id="text6-5"
       style="font-size:3.88056px;line-height:1.25;font-family:'Iosevka Aile';-inkscape-font-specification:'Iosevka Aile';fill:#d8dee9;stroke-width:0.264583"
       aria-label="Cat" /><path
       d="m 70.048234,-59.900836 q -0.104775,0 -0.20955,-0.01552 -0.104775,-0.01164 -0.205669,-0.05045 -0.09701,-0.03881 -0.182387,-0.100895 -0.08149,-0.06597 -0.14358,-0.151341 -0.05821,-0.08925 -0.08925,-0.190148 -0.02716,-0.104775 -0.02716,-0.20955 0,0 0,-0.0039 0,-0.0039 0,-0.0039 h 0.322086 q 0,0 0,0.0039 0,0 0,0 0,0.09701 0.04269,0.190148 0.04269,0.08925 0.120298,0.147461 0.08149,0.05433 0.178506,0.07761 0.09701,0.0194 0.194027,0.0194 0.100895,0 0.197909,-0.02328 0.100895,-0.02328 0.178506,-0.08537 0.07761,-0.06597 0.120297,-0.159103 0.04269,-0.09313 0.04269,-0.194028 0,-0.104775 -0.05045,-0.201789 -0.05045,-0.09701 -0.131939,-0.162983 -0.08149,-0.06985 -0.182386,-0.108656 -0.09701,-0.04269 -0.197909,-0.07761 -0.09701,-0.03493 -0.194028,-0.07373 -0.09701,-0.04269 -0.186267,-0.09701 -0.08925,-0.05821 -0.166864,-0.131939 -0.07761,-0.07373 -0.135819,-0.162983 -0.05433,-0.08925 -0.08537,-0.190148 -0.02716,-0.104775 -0.02716,-0.20955 0,-0.104775 0.02716,-0.20567 0.02716,-0.104775 0.07761,-0.194028 0.05433,-0.09313 0.13582,-0.162983 0.08149,-0.06985 0.174625,-0.112536 0.09701,-0.04269 0.201789,-0.05821 0.104776,-0.01552 0.209551,-0.01552 0.104775,0 0.205669,0.01552 0.100895,0.01552 0.194028,0.05433 0.09701,0.03881 0.178506,0.104775 0.08149,0.06209 0.13582,0.147462 0.05821,0.08537 0.08537,0.186266 0.02716,0.100895 0.02716,0.201789 0,0.0039 0,0.0078 0,0 0,0.0039 h -0.322087 q 0,0 0,0 0,-0.0039 0,-0.0078 0,-0.09313 -0.0388,-0.178506 -0.03881,-0.08925 -0.112536,-0.147461 -0.07373,-0.05821 -0.166865,-0.07761 -0.09313,-0.02328 -0.186266,-0.02328 -0.09701,0 -0.194028,0.02716 -0.09313,0.02328 -0.166864,0.08925 -0.06985,0.06209 -0.108656,0.155223 -0.03881,0.09313 -0.03881,0.190147 0,0.104775 0.05045,0.201789 0.05045,0.09701 0.128058,0.166864 0.08149,0.06597 0.178506,0.108656 0.100894,0.03881 0.201789,0.07373 0.100894,0.03493 0.197908,0.07761 0.09701,0.03881 0.186267,0.09701 0.08925,0.05433 0.166864,0.128058 0.07761,0.07373 0.131939,0.162984 0.05821,0.08925 0.08537,0.190147 0.03104,0.100895 0.03104,0.20955 0,0.104776 -0.03104,0.209551 -0.02716,0.104775 -0.08537,0.197908 -0.05433,0.08925 -0.1397,0.159103 -0.08537,0.06985 -0.186267,0.112536 -0.09701,0.03881 -0.205669,0.05433 -0.104775,0.01552 -0.209551,0.01552 z m 1.50954,-0.03104 v -2.852211 h 0.322086 v 1.206854 q 0.03881,-0.09313 0.100895,-0.170745 0.06209,-0.08149 0.143581,-0.131939 0.08149,-0.05433 0.178505,-0.07761 0.100895,-0.02328 0.201789,-0.02328 0.100895,0 0.20179,0.02716 0.104775,0.02328 0.190147,0.08149 0.08537,0.05821 0.147461,0.147461 0.06209,0.08537 0.09701,0.182387 0.03493,0.09701 0.04657,0.201789 0.01552,0.100894 0.01552,0.205669 v 1.202974 h -0.322086 v -1.202974 q 0,-0.06985 -0.01164,-0.1397 -0.0078,-0.07373 -0.03493,-0.1397 -0.02716,-0.06597 -0.07373,-0.120297 -0.04657,-0.05821 -0.108655,-0.09313 -0.05821,-0.03881 -0.131939,-0.05433 -0.06985,-0.01552 -0.139701,-0.01552 -0.06985,0 -0.14358,0.01552 -0.06985,0.01552 -0.131939,0.05433 -0.05821,0.03492 -0.104775,0.09313 -0.04657,0.05433 -0.07373,0.120297 -0.02716,0.06597 -0.03881,0.1397 -0.0078,0.06985 -0.0078,0.1397 v 1.202974 z m 3.158777,0.03104 q -0.112536,0 -0.228953,-0.0194 -0.112536,-0.0194 -0.217311,-0.06985 -0.100895,-0.05045 -0.186267,-0.128059 -0.08149,-0.08149 -0.13582,-0.182386 -0.05045,-0.104775 -0.07373,-0.217311 -0.0194,-0.112537 -0.0194,-0.228954 v -0.388056 q 0,-0.112536 0.0194,-0.225072 0.0194,-0.116417 0.06985,-0.217311 0.05433,-0.100895 0.135819,-0.182387 0.08537,-0.08149 0.186267,-0.131939 0.100895,-0.05045 0.213431,-0.06985 0.116417,-0.0194 0.228953,-0.0194 0.112536,0 0.225072,0.0194 0.116417,0.0194 0.217312,0.06985 0.100894,0.05045 0.182386,0.131939 0.08537,0.08149 0.13582,0.182387 0.05433,0.100894 0.07373,0.217311 0.0194,0.112536 0.0194,0.225072 v 0.337609 h -1.38536 v 0.05045 q 0,0.07373 0.01164,0.147462 0.01164,0.07373 0.04269,0.1397 0.03104,0.06597 0.08149,0.124178 0.05433,0.05433 0.116417,0.08925 0.06597,0.03104 0.1397,0.04657 0.07373,0.01164 0.147461,0.01164 0.08537,0 0.166864,-0.01164 0.08149,-0.01164 0.155223,-0.04657 0.07761,-0.03493 0.131939,-0.100895 0.05433,-0.06597 0.06209,-0.151342 h 0.322086 q -0.0078,0.09701 -0.04657,0.186267 -0.03493,0.08925 -0.09701,0.162984 -0.06209,0.06985 -0.14358,0.120297 -0.08149,0.05045 -0.174626,0.08149 -0.08925,0.02716 -0.186267,0.03493 -0.09313,0.01164 -0.190147,0.01164 z m -0.539398,-1.183571 h 1.063274 v -0.05045 q 0,-0.07373 -0.01164,-0.14358 -0.01164,-0.07373 -0.04269,-0.1397 -0.03104,-0.06985 -0.08149,-0.124178 -0.04657,-0.05433 -0.112536,-0.08925 -0.06597,-0.03493 -0.1397,-0.05045 -0.06985,-0.01552 -0.143581,-0.01552 -0.07373,0 -0.147461,0.01552 -0.06985,0.01552 -0.13582,0.05045 -0.06597,0.03493 -0.116417,0.08925 -0.04657,0.05433 -0.07761,0.124178 -0.03104,0.06597 -0.04269,0.1397 -0.01164,0.06985 -0.01164,0.14358 z m 2.867735,1.183571 q -0.112536,0 -0.228953,-0.0194 -0.112536,-0.0194 -0.217311,-0.06985 -0.100895,-0.05045 -0.186267,-0.128059 -0.08149,-0.08149 -0.13582,-0.182386 -0.05045,-0.104775 -0.07373,-0.217311 -0.0194,-0.112537 -0.0194,-0.228954 v -0.388056 q 0,-0.112536 0.0194,-0.225072 0.0194,-0.116417 0.06985,-0.217311 0.05433,-0.100895 0.135819,-0.182387 0.08537,-0.08149 0.186267,-0.131939 0.100895,-0.05045 0.213431,-0.06985 0.116417,-0.0194 0.228953,-0.0194 0.112536,0 0.225073,0.0194 0.116416,0.0194 0.217311,0.06985 0.100895,0.05045 0.182386,0.131939 0.08537,0.08149 0.13582,0.182387 0.05433,0.100894 0.07373,0.217311 0.0194,0.112536 0.0194,0.225072 v 0.337609 h -1.38536 v 0.05045 q 0,0.07373 0.01164,0.147462 0.01164,0.07373 0.04269,0.1397 0.03104,0.06597 0.08149,0.124178 0.05433,0.05433 0.116417,0.08925 0.06597,0.03104 0.1397,0.04657 0.07373,0.01164 0.147461,0.01164 0.08537,0 0.166864,-0.01164 0.08149,-0.01164 0.155223,-0.04657 0.07761,-0.03493 0.131939,-0.100895 0.05433,-0.06597 0.06209,-0.151342 h 0.322086 q -0.0078,0.09701 -0.04657,0.186267 -0.03493,0.08925 -0.09701,0.162984 -0.06209,0.06985 -0.14358,0.120297 -0.08149,0.05045 -0.174625,0.08149 -0.08925,0.02716 -0.186267,0.03493 -0.09313,0.01164 -0.190148,0.01164 z m -0.539398,-1.183571 h 1.063274 v -0.05045 q 0,-0.07373 -0.01164,-0.14358 -0.01164,-0.07373 -0.04269,-0.1397 -0.03104,-0.06985 -0.08149,-0.124178 -0.04657,-0.05433 -0.112536,-0.08925 -0.06597,-0.03493 -0.1397,-0.05045 -0.06985,-0.01552 -0.143581,-0.01552 -0.07373,0 -0.147461,0.01552 -0.06985,0.01552 -0.13582,0.05045 -0.06597,0.03493 -0.116417,0.08925 -0.04657,0.05433 -0.07761,0.124178 -0.03104,0.06597 -0.04269,0.1397 -0.01164,0.06985 -0.01164,0.14358 z m 2.037296,1.986846 v -2.852211 h 0.322087 v 0.372534 q 0.0388,-0.09313 0.100894,-0.170745 0.06209,-0.08149 0.143581,-0.13582 0.08537,-0.05433 0.182386,-0.07373 0.100895,-0.02328 0.197909,-0.02328 0.108655,0 0.20955,0.02328 0.104775,0.02328 0.194028,0.08149 0.08925,0.05821 0.155222,0.14358 0.06597,0.08537 0.104775,0.186267 0.03881,0.09701 0.05045,0.201789 0.01552,0.104775 0.01552,0.20955 v 0.388056 q 0,0.104776 -0.01552,0.209551 -0.01164,0.104775 -0.05045,0.205669 -0.0388,0.09701 -0.104775,0.182387 -0.06597,0.08537 -0.155222,0.14358 -0.08925,0.05821 -0.194028,0.08149 -0.100895,0.02328 -0.20955,0.02328 -0.09701,0 -0.197909,-0.02328 -0.09701,-0.0194 -0.182386,-0.07373 -0.08149,-0.05433 -0.143581,-0.13194 -0.06209,-0.08149 -0.100894,-0.174625 v 1.206854 z m 0.826559,-1.086556 q 0.07373,0 0.143581,-0.01552 0.07373,-0.01552 0.13582,-0.05045 0.06597,-0.03493 0.116416,-0.08925 0.05045,-0.05821 0.07761,-0.124178 0.03104,-0.06597 0.04269,-0.135819 0.01164,-0.07373 0.01164,-0.147462 v -0.388056 q 0,-0.07373 -0.01164,-0.14358 -0.01164,-0.07373 -0.04269,-0.1397 -0.02716,-0.06597 -0.07761,-0.120298 -0.05045,-0.05821 -0.116416,-0.09313 -0.06209,-0.03493 -0.13582,-0.05045 -0.06985,-0.01552 -0.143581,-0.01552 -0.07373,0 -0.14358,0.01552 -0.06985,0.01552 -0.131939,0.05433 -0.06209,0.03492 -0.108656,0.09313 -0.04657,0.05433 -0.07373,0.120297 -0.02716,0.06597 -0.0388,0.1397 -0.0078,0.06985 -0.0078,0.1397 v 0.388056 q 0,0.06985 0.0078,0.143581 0.01164,0.06985 0.0388,0.13582 0.02716,0.06597 0.07373,0.124178 0.04657,0.05433 0.108656,0.09313 0.06209,0.03493 0.131939,0.05045 0.06985,0.01552 0.14358,0.01552 z"
       id="text7-5"
       style="font-size:3.88056px;line-height:1.25;font-family:'Iosevka Aile';-inkscape-font-specification:'Iosevka Aile';fill:#d8dee9;stroke-width:0.264583"
       aria-label="Sheep" /></g></svg>
